<?xml version="1.0" encoding="UTF-8" standalone="no"?>
<!-- Created with Inkscape (http://www.inkscape.org/) -->

<svg
   width="8.9999647mm"
   height="8.9997091mm"
   viewBox="0 0 8.9999649 8.9997087"
   version="1.1"
   id="svg1"
   xml:space="preserve"
   inkscape:version="1.4.2 (f4327f4, 2025-05-13)"
   sodipodi:docname="coffe_32.svg"
   xmlns:inkscape="http://www.inkscape.org/namespaces/inkscape"
   xmlns:sodipodi="http://sodipodi.sourceforge.net/DTD/sodipodi-0.dtd"
   xmlns="http://www.w3.org/2000/svg"
   xmlns:svg="http://www.w3.org/2000/svg"><sodipodi:namedview
     id="namedview1"
     pagecolor="#ffffff"
     bordercolor="#000000"
     borderopacity="0.25"
     inkscape:showpageshadow="2"
     inkscape:pageopacity="0.0"
     inkscape:pagecheckerboard="0"
     inkscape:deskcolor="#d1d1d1"
     inkscape:document-units="mm"
     inkscape:zoom="8"
     inkscape:cx="26.375"
     inkscape:cy="22.8125"
     inkscape:window-width="1920"
     inkscape:window-height="1009"
     inkscape:window-x="-8"
     inkscape:window-y="-8"
     inkscape:window-maximized="1"
     inkscape:current-layer="layer1"
     showguides="true"><inkscape:page
       x="0"
       y="0"
       width="8.9999657"
       height="8.9997091"
       id="page13"
       margin="0 0 0.016264591"
       bleed="0" /></sodipodi:namedview><defs
     id="defs1" /><g
     inkscape:label="Calque 1"
     inkscape:groupmode="layer"
     id="layer1"
     transform="translate(-99.605453,-139.45414)"><circle
       style="fill:#ffeb3b;fill-opacity:0.278846;stroke:none;stroke-width:0.162;stroke-dasharray:none;stroke-opacity:1"
       id="path13"
       cx="113.65008"
       cy="144.00015"
       r="4.5" /><circle
       style="fill:#673ab7;fill-opacity:1;stroke:none;stroke-width:0.162;stroke-dasharray:none;stroke-opacity:1"
       id="path13-6"
       cx="94.483299"
       cy="144.06267"
       r="4.5" /><circle
       style="fill:#673ab7;fill-opacity:1;stroke:#673ab7;stroke-width:0.1377;stroke-dasharray:none;stroke-opacity:1"
       id="path13-6-9"
       cx="104.13853"
       cy="143.95413"
       r="3.825" /><g
       id="g510"
       transform="matrix(0.62272554,0,0,0.62272554,41.20587,56.347466)"><g
         id="g526" /></g><g
       style="fill:#ffe939;fill-opacity:1"
       id="g1"
       transform="matrix(0.00661458,0,0,0.00661458,100.96144,147.29243)"><path
         d="m 160,-120 v -80 h 640 v 80 z m 160,-160 q -66,0 -113,-47 -47,-47 -47,-113 v -400 h 640 q 33,0 56.5,23.5 23.5,23.5 23.5,56.5 v 120 q 0,33 -23.5,56.5 Q 833,-560 800,-560 h -80 v 120 q 0,66 -47,113 -47,47 -113,47 z m 0,-80 h 240 q 33,0 56.5,-23.5 Q 640,-407 640,-440 V -760 H 240 v 320 q 0,33 23.5,56.5 23.5,23.5 56.5,23.5 z m 400,-280 h 80 v -120 h -80 z m -400,280 h -80 400 z"
         id="path1"
         style="fill:#ffe939;fill-opacity:1" /></g></g></svg>
