<?xml version="1.0" encoding="UTF-8" standalone="no"?>
<!-- Created with Inkscape (http://www.inkscape.org/) -->

<svg
   width="8.9999647mm"
   height="8.9997091mm"
   viewBox="0 0 8.9999649 8.9997087"
   version="1.1"
   id="svg1"
   xml:space="preserve"
   inkscape:version="1.4.2 (f4327f4, 2025-05-13)"
   sodipodi:docname="applyLoc_32.svg"
   xmlns:inkscape="http://www.inkscape.org/namespaces/inkscape"
   xmlns:sodipodi="http://sodipodi.sourceforge.net/DTD/sodipodi-0.dtd"
   xmlns="http://www.w3.org/2000/svg"
   xmlns:svg="http://www.w3.org/2000/svg"><sodipodi:namedview
     id="namedview1"
     pagecolor="#ffffff"
     bordercolor="#000000"
     borderopacity="0.25"
     inkscape:showpageshadow="2"
     inkscape:pageopacity="0.0"
     inkscape:pagecheckerboard="0"
     inkscape:deskcolor="#d1d1d1"
     inkscape:document-units="mm"
     inkscape:zoom="11.313708"
     inkscape:cx="32.08497"
     inkscape:cy="16.749592"
     inkscape:window-width="1920"
     inkscape:window-height="1009"
     inkscape:window-x="-8"
     inkscape:window-y="-8"
     inkscape:window-maximized="1"
     inkscape:current-layer="layer1"
     showguides="true"><inkscape:page
       x="0"
       y="0"
       width="8.9999657"
       height="8.9997091"
       id="page13"
       margin="0 0 0.016264591"
       bleed="0" /></sodipodi:namedview><defs
     id="defs1" /><g
     inkscape:label="Calque 1"
     inkscape:groupmode="layer"
     id="layer1"
     transform="translate(-99.605453,-139.45414)"><circle
       style="fill:#ffeb3b;fill-opacity:0.278846;stroke:none;stroke-width:0.162;stroke-dasharray:none;stroke-opacity:1"
       id="path13"
       cx="113.65008"
       cy="144.00015"
       r="4.5" /><circle
       style="fill:#673ab7;fill-opacity:1;stroke:none;stroke-width:0.162;stroke-dasharray:none;stroke-opacity:1"
       id="path13-6"
       cx="94.483299"
       cy="144.06267"
       r="4.5" /><g
       id="g510"
       transform="matrix(1.2196376,0,0,1.2196376,-23.230981,-31.906757)"><path
         style="baseline-shift:baseline;display:inline;overflow:visible;opacity:1;fill:#2b78cd;fill-opacity:0.988235;stroke:none;stroke-width:0.18;stroke-dasharray:none;stroke-opacity:1;enable-background:accumulate;stop-color:#000000;stop-opacity:1"
         d="m 102.54551,144.25537 -1.76484,0.007 c 0.004,0.85835 0.33656,1.72164 0.98965,2.37304 l 1.24805,-1.2498 c -0.3165,-0.31567 -0.47121,-0.71944 -0.47286,-1.13027 z"
         id="path509-4" /><path
         style="baseline-shift:baseline;display:inline;overflow:visible;opacity:1;fill:#2d3197;fill-opacity:0.960784;stroke:none;stroke-width:0.18;stroke-dasharray:none;stroke-opacity:1;enable-background:accumulate;stop-color:#000000;stop-opacity:1"
         d="m 101.77561,141.67522 c -0.60528,0.60859 -0.98086,1.45588 -0.98086,2.37832 h 1.7666 c 0,-0.44699 0.17786,-0.84073 0.46758,-1.13203 z"
         id="path509-0" /><path
         style="baseline-shift:baseline;display:inline;overflow:visible;opacity:1;fill:#b417af;fill-opacity:0.921569;stroke:none;stroke-width:0.18;stroke-dasharray:none;stroke-opacity:1;enable-background:accumulate;stop-color:#000000;stop-opacity:1"
         d="m 104.29092,140.56411 c -0.85835,0.004 -1.72163,0.33832 -2.37305,0.9914 l 1.24981,1.24629 c 0.31567,-0.31648 0.71944,-0.46944 1.13027,-0.47109 z"
         id="path509-4-9" /><path
         style="baseline-shift:baseline;display:inline;overflow:visible;opacity:1;fill:#69b10b;fill-opacity:0.901961;stroke:none;stroke-width:0.18;stroke-dasharray:none;stroke-opacity:1;enable-background:accumulate;stop-color:#000000;stop-opacity:1"
         d="m 105.70168,145.53025 c -0.2913,0.28972 -0.68504,0.46757 -1.13203,0.46757 v 1.76661 c 0.92244,0 1.76797,-0.37558 2.37656,-0.98086 z"
         id="path509-6" /><path
         style="baseline-shift:baseline;display:inline;overflow:visible;fill:#0a8041;fill-opacity:0.929412;stroke:none;stroke-width:0.18;stroke-dasharray:none;stroke-opacity:1;enable-background:accumulate;stop-color:#000000"
         d="m 103.16918,145.52822 c 0.2913,0.28972 0.68504,0.46757 1.13203,0.46757 v 1.76661 c -0.92244,0 -1.76797,-0.37558 -2.37656,-0.98086 z"
         id="path509-6-1" /><path
         style="baseline-shift:baseline;display:inline;overflow:visible;opacity:1;fill:#e2cc06;fill-opacity:0.882353;stroke:none;stroke-width:0.18;stroke-dasharray:none;stroke-opacity:1;enable-background:accumulate;stop-color:#000000;stop-opacity:1"
         d="m 106.29258,144.26123 c -0.002,0.41083 -0.15461,0.8146 -0.47109,1.13027 l 1.24628,1.24981 c 0.65308,-0.65142 0.98797,-1.5147 0.99141,-2.37304 z"
         id="path509-4-0" /><path
         style="baseline-shift:baseline;display:inline;overflow:visible;opacity:1;fill:#e88b1a;fill-opacity:0.811765;stroke:none;stroke-width:0.18;stroke-dasharray:none;stroke-opacity:1;enable-background:accumulate;stop-color:#000000;stop-opacity:1"
         d="m 107.087,141.68108 -1.25157,1.24629 c 0.28972,0.2913 0.46583,0.68503 0.46583,1.13203 h 1.7666 c 0,-0.92244 -0.37558,-1.76974 -0.98086,-2.37832 z"
         id="path509-0-1" /><path
         style="baseline-shift:baseline;display:inline;overflow:visible;opacity:1;fill:#f40f14;fill-opacity:0.929412;stroke:none;stroke-width:0.18;stroke-dasharray:none;stroke-opacity:1;enable-background:accumulate;stop-color:#000000;stop-opacity:1"
         d="m 104.57157,140.56999 -0.007,1.76485 c 0.41083,0.002 0.81459,0.15636 1.13027,0.47285 l 1.2498,-1.24805 c -0.65141,-0.65309 -1.5147,-0.9862 -2.37305,-0.98965 z"
         id="path509-4-9-6" /></g><path
       style="fill:#ffffff;fill-opacity:1;stroke:none;stroke-width:0.1;stroke-linejoin:round;stroke-dasharray:none;stroke-opacity:1;paint-order:normal"
       d="m 101.04412,147.85466 -0.0165,-1.9513"
       id="path510" /><g
       id="g512"
       transform="translate(-2.1515197,-0.280633)"><path
         style="fill:#ffffff;fill-opacity:1;stroke:#000000;stroke-width:0.1;stroke-linejoin:round;stroke-dasharray:none;stroke-opacity:1;paint-order:normal"
         d="m 108.20441,148.63187 v -1.91822 l -1.53789,-1.53789 v -0.4961 h 3.95221 v 0.46302 l -1.5875,1.5875 v 1.43867 z"
         id="path511" /><path
         style="fill:#cccccc;fill-opacity:1;stroke:none;stroke-width:0.1;stroke-linejoin:round;stroke-dasharray:none;stroke-opacity:1;paint-order:normal"
         d="m 108.97291,146.7215 1.55159,-1.56228 -3.81124,-0.006 1.55744,1.55844 z"
         id="path512"
         sodipodi:nodetypes="ccccc" /></g></g></svg>
