<?xml version="1.0" encoding="UTF-8" standalone="no"?>
<!-- Created with Inkscape (http://www.inkscape.org/) -->

<svg
   width="8.9999647mm"
   height="8.9997091mm"
   viewBox="0 0 8.9999649 8.9997087"
   version="1.1"
   id="svg1"
   xml:space="preserve"
   inkscape:version="1.4.2 (f4327f4, 2025-05-13)"
   sodipodi:docname="manageLinks_24.svg"
   xmlns:inkscape="http://www.inkscape.org/namespaces/inkscape"
   xmlns:sodipodi="http://sodipodi.sourceforge.net/DTD/sodipodi-0.dtd"
   xmlns="http://www.w3.org/2000/svg"
   xmlns:svg="http://www.w3.org/2000/svg"><sodipodi:namedview
     id="namedview1"
     pagecolor="#ffffff"
     bordercolor="#000000"
     borderopacity="0.25"
     inkscape:showpageshadow="2"
     inkscape:pageopacity="0.0"
     inkscape:pagecheckerboard="0"
     inkscape:deskcolor="#d1d1d1"
     inkscape:document-units="mm"
     inkscape:zoom="16.267265"
     inkscape:cx="17.335428"
     inkscape:cy="21.361919"
     inkscape:window-width="1920"
     inkscape:window-height="1009"
     inkscape:window-x="-8"
     inkscape:window-y="-8"
     inkscape:window-maximized="1"
     inkscape:current-layer="layer1"
     showguides="true"><inkscape:page
       x="0"
       y="0"
       width="8.9999657"
       height="8.9997091"
       id="page13"
       margin="0 0 0.016264591"
       bleed="0" /></sodipodi:namedview><defs
     id="defs1" /><g
     inkscape:label="Calque 1"
     inkscape:groupmode="layer"
     id="layer1"
     transform="translate(-99.605453,-139.45414)"><circle
       style="fill:#ffeb3b;fill-opacity:0.278846;stroke:none;stroke-width:0.162;stroke-dasharray:none;stroke-opacity:1"
       id="path13"
       cx="113.65008"
       cy="144.00015"
       r="4.5" /><circle
       style="fill:#673ab7;fill-opacity:1;stroke:none;stroke-width:0.162;stroke-dasharray:none;stroke-opacity:1"
       id="path13-6"
       cx="94.483299"
       cy="144.06267"
       r="4.5" /><path
       id="rect1"
       style="fill:none;fill-opacity:1;stroke:#0076c8;stroke-width:0.437213;stroke-opacity:1"
       inkscape:transform-center-x="-0.082230893"
       inkscape:transform-center-y="-0.083798034"
       d="m 104.51887,142.97355 c 0.51551,0.56951 0.47033,1.46055 -0.10129,1.99785 l -1.53297,1.4409 c -0.57161,0.5373 -1.4468,0.51136 -1.9623,-0.0582 -0.5155,-0.56952 -0.47032,-1.46055 0.1013,-1.99784 l 1.53296,-1.4409 c 0.19745,-0.1856 0.43114,-0.30397 0.67367,-0.35599"
       sodipodi:nodetypes="csssssc" /><path
       id="rect1-1"
       style="fill:none;fill-opacity:1;stroke:#217346;stroke-width:0.437213;stroke-opacity:1"
       inkscape:transform-center-x="0.082231047"
       inkscape:transform-center-y="0.08380896"
       d="m 103.63189,144.79397 c -0.5155,-0.56951 -0.47032,-1.46055 0.1013,-1.99785 l 1.53296,-1.4409 c 0.57161,-0.53729 1.4468,-0.51135 1.96231,0.0582 0.5155,0.56952 0.47032,1.46055 -0.10131,1.99784 l -1.53296,1.44092 c -0.19744,0.18559 -0.43113,0.30395 -0.67367,0.35597"
       sodipodi:nodetypes="csssssc" /><path
       id="rect1-9"
       style="fill:none;fill-opacity:0;stroke:#0076c8;stroke-width:0.437213;stroke-opacity:1"
       inkscape:transform-center-x="-0.082230893"
       inkscape:transform-center-y="-0.083798034"
       d="m 113.80876,142.73876 c 0.51551,0.56951 0.47033,1.46055 -0.10129,1.99785 l -1.53297,1.4409 c -0.57161,0.5373 -1.4468,0.51136 -1.9623,-0.0582 -0.5155,-0.56952 -0.47032,-1.46055 0.1013,-1.99784 l 1.53296,-1.4409 c 0.19745,-0.1856 0.43114,-0.30397 0.67367,-0.35599"
       sodipodi:nodetypes="csssssc" /><path
       id="rect1-1-3"
       style="fill:none;fill-opacity:1;stroke:#217346;stroke-width:0.437213;stroke-opacity:1"
       inkscape:transform-center-x="0.082231047"
       inkscape:transform-center-y="0.08380896"
       d="m 112.92178,144.55918 c -0.5155,-0.56951 -0.47032,-1.46055 0.1013,-1.99785 l 1.53296,-1.4409 c 0.57161,-0.53729 1.4468,-0.51135 1.96231,0.0582 0.5155,0.56952 0.47032,1.46055 -0.10131,1.99784 l -1.53296,1.44092 c -0.19744,0.18559 -0.43113,0.30395 -0.67367,0.35597"
       sodipodi:nodetypes="csssssc" /></g></svg>
